<mxfile host="app.diagrams.net" modified="2023-12-09T11:58:18.721Z" agent="Mozilla/5.0 (Windows NT 10.0; Win64; x64) AppleWebKit/537.36 (KHTML, like Gecko) Chrome/119.0.0.0 Safari/537.36" etag="D-HyeOqSNxkz1b7uR29l" version="22.1.7" type="device">
  <diagram name="Page-1" id="UIt4oFT6vnFcvA8xH-wc">
    <mxGraphModel dx="1221" dy="826" grid="1" gridSize="10" guides="1" tooltips="1" connect="1" arrows="1" fold="1" page="1" pageScale="1" pageWidth="850" pageHeight="1100" math="0" shadow="0">
      <root>
        <mxCell id="0" />
        <mxCell id="1" parent="0" />
        <mxCell id="JMkpRrbRe8zlzlUR4qUp-1" value="Investor" style="shape=umlActor;verticalLabelPosition=bottom;verticalAlign=top;html=1;outlineConnect=0;" vertex="1" parent="1">
          <mxGeometry x="90" y="100" width="30" height="60" as="geometry" />
        </mxCell>
        <mxCell id="JMkpRrbRe8zlzlUR4qUp-2" value="System" style="rounded=0;whiteSpace=wrap;html=1;" vertex="1" parent="1">
          <mxGeometry x="290" y="100" width="120" height="60" as="geometry" />
        </mxCell>
        <mxCell id="JMkpRrbRe8zlzlUR4qUp-3" value="Administrator" style="rounded=0;whiteSpace=wrap;html=1;" vertex="1" parent="1">
          <mxGeometry x="560" y="100" width="120" height="60" as="geometry" />
        </mxCell>
        <mxCell id="JMkpRrbRe8zlzlUR4qUp-4" value="" style="rounded=0;whiteSpace=wrap;html=1;" vertex="1" parent="1">
          <mxGeometry x="80" y="210" width="40" height="350" as="geometry" />
        </mxCell>
        <mxCell id="JMkpRrbRe8zlzlUR4qUp-5" value="" style="rounded=0;whiteSpace=wrap;html=1;" vertex="1" parent="1">
          <mxGeometry x="320" y="210" width="40" height="270" as="geometry" />
        </mxCell>
        <mxCell id="JMkpRrbRe8zlzlUR4qUp-6" value="" style="rounded=0;whiteSpace=wrap;html=1;" vertex="1" parent="1">
          <mxGeometry x="600" y="210" width="40" height="270" as="geometry" />
        </mxCell>
        <mxCell id="JMkpRrbRe8zlzlUR4qUp-10" value="" style="endArrow=classic;html=1;rounded=0;entryX=0;entryY=0.25;entryDx=0;entryDy=0;exitX=0.992;exitY=0.194;exitDx=0;exitDy=0;exitPerimeter=0;" edge="1" parent="1" source="JMkpRrbRe8zlzlUR4qUp-4" target="JMkpRrbRe8zlzlUR4qUp-5">
          <mxGeometry width="50" height="50" relative="1" as="geometry">
            <mxPoint x="400" y="450" as="sourcePoint" />
            <mxPoint x="450" y="400" as="targetPoint" />
          </mxGeometry>
        </mxCell>
        <mxCell id="JMkpRrbRe8zlzlUR4qUp-11" value="" style="endArrow=classic;html=1;rounded=0;entryX=0;entryY=0.25;entryDx=0;entryDy=0;exitX=1;exitY=0.25;exitDx=0;exitDy=0;" edge="1" parent="1" source="JMkpRrbRe8zlzlUR4qUp-5" target="JMkpRrbRe8zlzlUR4qUp-6">
          <mxGeometry width="50" height="50" relative="1" as="geometry">
            <mxPoint x="400" y="450" as="sourcePoint" />
            <mxPoint x="450" y="400" as="targetPoint" />
          </mxGeometry>
        </mxCell>
        <mxCell id="JMkpRrbRe8zlzlUR4qUp-12" value="" style="endArrow=classic;startArrow=classic;html=1;rounded=0;entryX=-0.075;entryY=0.716;entryDx=0;entryDy=0;entryPerimeter=0;exitX=1.058;exitY=0.709;exitDx=0;exitDy=0;exitPerimeter=0;" edge="1" parent="1" source="JMkpRrbRe8zlzlUR4qUp-5" target="JMkpRrbRe8zlzlUR4qUp-6">
          <mxGeometry width="50" height="50" relative="1" as="geometry">
            <mxPoint x="400" y="450" as="sourcePoint" />
            <mxPoint x="450" y="400" as="targetPoint" />
          </mxGeometry>
        </mxCell>
        <mxCell id="JMkpRrbRe8zlzlUR4qUp-13" value="" style="endArrow=none;dashed=1;html=1;dashPattern=1 3;strokeWidth=2;rounded=0;entryX=-0.092;entryY=0.852;entryDx=0;entryDy=0;entryPerimeter=0;exitX=1.042;exitY=0.657;exitDx=0;exitDy=0;exitPerimeter=0;" edge="1" parent="1" source="JMkpRrbRe8zlzlUR4qUp-4" target="JMkpRrbRe8zlzlUR4qUp-6">
          <mxGeometry width="50" height="50" relative="1" as="geometry">
            <mxPoint x="400" y="450" as="sourcePoint" />
            <mxPoint x="450" y="400" as="targetPoint" />
          </mxGeometry>
        </mxCell>
        <mxCell id="JMkpRrbRe8zlzlUR4qUp-14" value="" style="endArrow=classic;html=1;rounded=0;entryX=1.025;entryY=0.421;entryDx=0;entryDy=0;entryPerimeter=0;exitX=-0.025;exitY=0.556;exitDx=0;exitDy=0;exitPerimeter=0;" edge="1" parent="1" source="JMkpRrbRe8zlzlUR4qUp-5" target="JMkpRrbRe8zlzlUR4qUp-4">
          <mxGeometry width="50" height="50" relative="1" as="geometry">
            <mxPoint x="400" y="450" as="sourcePoint" />
            <mxPoint x="450" y="400" as="targetPoint" />
          </mxGeometry>
        </mxCell>
        <mxCell id="JMkpRrbRe8zlzlUR4qUp-15" value="" style="endArrow=none;dashed=1;html=1;dashPattern=1 3;strokeWidth=2;rounded=0;entryX=0.5;entryY=1;entryDx=0;entryDy=0;" edge="1" parent="1" target="JMkpRrbRe8zlzlUR4qUp-5">
          <mxGeometry width="50" height="50" relative="1" as="geometry">
            <mxPoint x="340" y="590" as="sourcePoint" />
            <mxPoint x="450" y="400" as="targetPoint" />
          </mxGeometry>
        </mxCell>
        <mxCell id="JMkpRrbRe8zlzlUR4qUp-16" value="" style="endArrow=none;dashed=1;html=1;dashPattern=1 3;strokeWidth=2;rounded=0;entryX=0.5;entryY=1;entryDx=0;entryDy=0;" edge="1" parent="1" target="JMkpRrbRe8zlzlUR4qUp-6">
          <mxGeometry width="50" height="50" relative="1" as="geometry">
            <mxPoint x="620" y="600" as="sourcePoint" />
            <mxPoint x="450" y="400" as="targetPoint" />
          </mxGeometry>
        </mxCell>
        <mxCell id="JMkpRrbRe8zlzlUR4qUp-17" value="" style="endArrow=none;dashed=1;html=1;dashPattern=1 3;strokeWidth=2;rounded=0;entryX=0.5;entryY=1;entryDx=0;entryDy=0;exitX=0.5;exitY=0;exitDx=0;exitDy=0;" edge="1" parent="1" source="JMkpRrbRe8zlzlUR4qUp-6" target="JMkpRrbRe8zlzlUR4qUp-3">
          <mxGeometry width="50" height="50" relative="1" as="geometry">
            <mxPoint x="400" y="450" as="sourcePoint" />
            <mxPoint x="450" y="400" as="targetPoint" />
          </mxGeometry>
        </mxCell>
        <mxCell id="JMkpRrbRe8zlzlUR4qUp-18" value="" style="endArrow=none;dashed=1;html=1;dashPattern=1 3;strokeWidth=2;rounded=0;exitX=0.5;exitY=0;exitDx=0;exitDy=0;" edge="1" parent="1" source="JMkpRrbRe8zlzlUR4qUp-5">
          <mxGeometry width="50" height="50" relative="1" as="geometry">
            <mxPoint x="400" y="450" as="sourcePoint" />
            <mxPoint x="340" y="160" as="targetPoint" />
          </mxGeometry>
        </mxCell>
        <mxCell id="JMkpRrbRe8zlzlUR4qUp-19" value="Investor explores investment opportunities." style="text;whiteSpace=wrap;" vertex="1" parent="1">
          <mxGeometry x="130" y="240" width="210" height="50" as="geometry" />
        </mxCell>
        <mxCell id="JMkpRrbRe8zlzlUR4qUp-20" value="System executes administrative tasks." style="text;whiteSpace=wrap;" vertex="1" parent="1">
          <mxGeometry x="370" y="370" width="310" height="50" as="geometry" />
        </mxCell>
        <mxCell id="JMkpRrbRe8zlzlUR4qUp-21" value="System provides portfolio details." style="text;whiteSpace=wrap;" vertex="1" parent="1">
          <mxGeometry x="127" y="331" width="210" height="40" as="geometry" />
        </mxCell>
        <mxCell id="JMkpRrbRe8zlzlUR4qUp-23" value="System processes the request and fetches relevant data." style="text;whiteSpace=wrap;" vertex="1" parent="1">
          <mxGeometry x="362" y="236" width="248" height="40" as="geometry" />
        </mxCell>
        <mxCell id="JMkpRrbRe8zlzlUR4qUp-24" value="Administrator oversees platform operations." style="text;whiteSpace=wrap;" vertex="1" parent="1">
          <mxGeometry x="236" y="413" width="238" height="40" as="geometry" />
        </mxCell>
      </root>
    </mxGraphModel>
  </diagram>
</mxfile>
